<?xml version="1.0" encoding="utf-8"?>
<!-- Generator: Adobe Illustrator 25.2.0, SVG Export Plug-In . SVG Version: 6.00 Build 0)  -->
<svg version="1.1" id="Layer_1" xmlns="http://www.w3.org/2000/svg" xmlns:xlink="http://www.w3.org/1999/xlink" x="0px" y="0px"
	 viewBox="0 0 825.1 595.3" style="enable-background:new 0 0 825.1 595.3;" xml:space="preserve">
<style type="text/css">
	.st0{opacity:0.5;}
	.st1{clip-path:url(#SVGID_2_);}
	.st2{fill:none;stroke:#FFFFFF;stroke-miterlimit:10;}
	.st3{fill:url(#SVGID_3_);}
	.st4{fill:url(#SVGID_4_);}
	.st5{fill:url(#SVGID_5_);}
	.st6{fill:url(#SVGID_6_);}
	.st7{fill:url(#SVGID_7_);}
	.st8{fill:url(#SVGID_8_);}
	.st9{fill:url(#SVGID_9_);}
	.st10{fill:url(#SVGID_10_);}
	.st11{fill:url(#SVGID_11_);}
	.st12{fill:url(#SVGID_12_);}
	.st13{fill:url(#SVGID_13_);}
	.st14{fill:url(#SVGID_14_);}
	.st15{fill:url(#SVGID_15_);}
	.st16{fill:url(#SVGID_16_);}
	.st17{fill:url(#SVGID_17_);}
	.st18{fill:url(#SVGID_18_);}
	.st19{fill:url(#SVGID_19_);}
	.st20{fill:url(#SVGID_20_);}
	.st21{opacity:0.2;clip-path:url(#SVGID_22_);}
	.st22{opacity:0.5;clip-path:url(#SVGID_24_);}
	.st23{fill:#010101;}
	.st24{fill:#F9A161;}
</style>
<image style="overflow:visible;" width="517" height="604" xlink:href="../../Users/Abi/Desktop/Untitled-1.jpg"  transform="matrix(0.994 0 0 0.994 311.8234 -2.5255)">
</image>
<g class="st0">
	<g>
		<defs>
			<rect id="SVGID_1_" x="318.6" y="227.3" width="507.1" height="367.9"/>
		</defs>
		<clipPath id="SVGID_2_">
			<use xlink:href="#SVGID_1_"  style="overflow:visible;"/>
		</clipPath>
		<g class="st1">
			<path class="st2" d="M350.9,689.6c0-52.5,19.9-104.7,54.7-143.9s84.3-65.1,136.4-71.4c41.8-5,85.3,2.1,125.4-10.6
				c36-11.4,65.2-37.5,93.2-62.8c31.7-28.7,63.5-57.6,89.9-91.2s47.3-72.6,54-114.8"/>
			<path class="st2" d="M903.7,201.6c-5,32.3-18,62.9-35.7,90.5c-5.4,8.5-11.3,16.8-17.6,24.8c-13.9,17.8-29.5,34.2-45.8,49.6
				c-14.7,13.8-30,26.9-45.3,39.9c-22.8,19.3-46.3,39-73.2,52c-6.8,3.3-13.8,6.2-21,8.5c-40.1,12.9-83,7.8-124,14.2
				c-3.9,0.6-7.8,1.3-11.6,2.2c-46.8,10-90.6,35.8-122.3,72.4c-34.3,39.7-54.2,91.8-54.9,144.3"/>
			<path class="st2" d="M902.9,208.3c-4.9,32.4-17.5,63.1-35,90.9c-5.4,8.6-11.3,16.9-17.5,24.9c-13.9,17.8-29.6,34.2-46.2,49.3
				c-14.9,13.6-30.5,26.1-46.1,38.4c-23.2,18.4-47.2,36.9-74.2,49.8c-6.8,3.2-13.9,6.1-21.1,8.5c-40,13.1-82.4,9.9-122.7,17.8
				c-3.8,0.7-7.6,1.6-11.4,2.6c-45.9,11.6-88.8,38.2-120.1,75.2c-33.8,40.1-53.7,92.2-55.1,144.6"/>
			<path class="st2" d="M902.1,214.9c-4.7,32.5-17.1,63.3-34.4,91.3c-5.4,8.6-11.2,17-17.4,25c-13.9,17.9-29.7,34.2-46.6,49
				c-15.2,13.3-31,25.3-46.9,37c-23.6,17.5-48,34.9-75.2,47.5c-6.9,3.2-13.9,6-21.2,8.4c-40,13.4-81.7,12.1-121.3,21.4
				c-3.8,0.9-7.5,1.9-11.2,2.9c-45.1,13.1-87.1,40.6-117.8,78.1c-33.3,40.6-53.1,92.6-55.3,145"/>
			<path class="st2" d="M901.3,221.6c-4.6,32.5-16.6,63.6-33.7,91.7c-5.3,8.7-11.1,17.1-17.3,25.1c-13.9,18-29.8,34.2-47,48.7
				c-15.4,13-31.5,24.5-47.7,35.6c-24,16.6-48.9,32.9-76.3,45.2c-6.9,3.1-14,5.9-21.2,8.4c-39.9,13.6-81.1,14.2-119.9,25
				c-3.7,1-7.4,2.1-11,3.3c-44.2,14.6-85.3,43-115.6,80.9c-32.8,41-52.6,93-55.6,145.4"/>
			<path class="st2" d="M900.4,228.2c-4.5,32.6-16.1,63.8-33.1,92.1c-5.3,8.7-11,17.1-17.3,25.2c-13.9,18-30,34.3-47.4,48.4
				c-15.7,12.7-32.1,23.6-48.5,34.2c-24.5,15.7-49.7,30.9-77.3,43c-7,3-14,5.9-21.3,8.4c-39.9,13.8-80.5,16.4-118.6,28.6
				c-3.6,1.2-7.2,2.4-10.8,3.7c-43.3,16.2-83.5,45.4-113.3,83.7c-32.3,41.5-52.1,93.4-55.8,145.8"/>
			<path class="st2" d="M899.6,234.9c-4.3,32.7-15.6,64.1-32.4,92.5c-5.2,8.8-11,17.2-17.2,25.3c-13.9,18.1-30.1,34.3-47.8,48.1
				c-15.9,12.4-32.6,22.8-49.3,32.7c-24.9,14.8-50.6,28.9-78.3,40.7c-7,3-14.1,5.8-21.3,8.3c-39.8,14-79.8,18.5-117.2,32.1
				c-3.5,1.3-7.1,2.7-10.6,4.1c-42.4,17.7-81.8,47.8-111.1,86.5c-31.8,41.9-51.6,93.7-56,146.1"/>
			<path class="st2" d="M898.8,241.6c-4.2,32.7-15.1,64.3-31.8,92.8c-5.2,8.8-10.9,17.3-17.1,25.4c-13.9,18.1-30.2,34.3-48.2,47.8
				c-16.1,12.1-33.1,22-50.1,31.3c-25.3,13.9-51.4,26.9-79.3,38.4c-7.1,2.9-14.2,5.7-21.4,8.3c-39.8,14.3-79.2,20.7-115.8,35.7
				c-3.5,1.4-6.9,2.9-10.4,4.5c-41.6,19.3-80,50.2-108.9,89.4c-31.3,42.4-51.1,94.1-56.2,146.5"/>
			<path class="st2" d="M898,248.2c-4.1,32.8-14.6,64.6-31.1,93.2c-5.1,8.8-10.8,17.4-17,25.5c-13.9,18.2-30.4,34.3-48.6,47.5
				c-16.4,11.9-33.6,21.2-50.9,29.9c-25.7,13-52.3,24.9-80.3,36.2c-7.1,2.8-14.2,5.6-21.4,8.3c-39.7,14.5-78.6,22.8-114.5,39.3
				c-3.4,1.6-6.8,3.2-10.1,4.9c-40.7,20.8-78.2,52.6-106.6,92.2c-30.8,42.8-50.6,94.5-56.4,146.9"/>
			<path class="st2" d="M897.2,254.9c-3.9,32.9-14.1,64.8-30.5,93.6c-5.1,8.9-10.7,17.5-17,25.6c-13.9,18.2-30.5,34.4-48.9,47.2
				c-16.6,11.6-34.1,20.3-51.8,28.4c-26.2,12-53.1,22.9-81.3,33.9c-7.1,2.8-14.3,5.6-21.5,8.2c-39.7,14.7-77.9,25-113.1,42.9
				c-3.3,1.7-6.6,3.5-9.9,5.3c-39.8,22.3-76.4,55-104.4,95c-30.2,43.3-50.1,94.9-56.6,147.2"/>
			<path class="st2" d="M896.4,261.5c-3.8,33-13.6,65-29.8,94c-5,8.9-10.7,17.6-16.9,25.7c-13.9,18.3-30.6,34.4-49.3,46.9
				c-16.9,11.3-34.6,19.5-52.6,27c-26.6,11.1-54,20.9-82.3,31.6c-7.2,2.7-14.3,5.5-21.5,8.2c-39.7,14.9-77.3,27.1-111.7,46.5
				c-3.3,1.8-6.5,3.7-9.7,5.7c-38.9,23.9-74.7,57.4-102.1,97.8c-29.7,43.7-49.6,95.3-56.8,147.6"/>
			<path class="st2" d="M895.6,268.2c-3.7,33-13.1,65.3-29.2,94.4c-5,9-10.6,17.7-16.8,25.9c-13.9,18.4-30.7,34.4-49.7,46.6
				c-17.1,11-35.1,18.7-53.4,25.6c-27,10.2-54.8,18.9-83.3,29.4c-7.2,2.7-14.4,5.4-21.6,8.2c-39.6,15.2-76.7,29.3-110.4,50.1
				c-3.2,2-6.4,4-9.5,6.1c-38,25.4-72.9,59.9-99.9,100.7c-29.2,44.2-49.1,95.7-57.1,148"/>
			<path class="st2" d="M894.8,274.9c-3.6,33.1-12.6,65.5-28.5,94.8c-4.9,9-10.5,17.7-16.7,26c-13.9,18.4-30.9,34.4-50.1,46.3
				c-17.3,10.7-35.7,17.9-54.2,24.1c-27.4,9.3-55.7,16.9-84.3,27.1c-7.3,2.6-14.5,5.3-21.6,8.1c-39.6,15.4-76,31.4-109,53.7
				c-3.1,2.1-6.2,4.3-9.3,6.5c-37.2,26.9-71.1,62.3-97.7,103.5c-28.7,44.6-48.6,96.1-57.3,148.3"/>
			<path class="st2" d="M894,281.5c-3.4,33.2-12.1,65.8-27.9,95.2c-4.9,9.1-10.4,17.8-16.7,26.1c-13.9,18.5-31,34.4-50.5,46
				c-17.6,10.4-36.2,17.1-55,22.7c-27.8,8.4-56.5,14.9-85.3,24.8c-7.3,2.5-14.5,5.3-21.7,8.1c-39.5,15.6-75.4,33.6-107.6,57.3
				c-3.1,2.2-6.1,4.5-9.1,6.9c-36.3,28.5-69.4,64.7-95.4,106.3c-28.2,45.1-48.1,96.4-57.5,148.7"/>
			<path class="st2" d="M893.2,288.2c-3.3,33.2-11.6,66-27.2,95.5c-4.8,9.1-10.4,17.9-16.6,26.2c-13.9,18.5-31.1,34.5-50.9,45.7
				c-17.8,10.2-36.7,16.2-55.8,21.3c-28.3,7.5-57.4,12.8-86.4,22.6c-7.4,2.5-14.6,5.2-21.8,8.1c-39.5,15.8-74.8,35.7-106.2,60.8
				c-3,2.4-5.9,4.8-8.9,7.3c-35.4,30-67.6,67.1-93.2,109.2c-27.7,45.5-47.5,96.8-57.7,149.1"/>
			<path class="st2" d="M892.4,294.9c-3.2,33.3-11.2,66.3-26.6,95.9c-4.8,9.2-10.3,18-16.5,26.3c-13.9,18.6-31.3,34.5-51.3,45.4
				c-18.1,9.9-37.2,15.4-56.6,19.8c-28.7,6.6-58.2,10.8-87.4,20.3c-7.4,2.4-14.7,5.1-21.8,8c-39.4,16-74.2,37.9-104.9,64.4
				c-2.9,2.5-5.8,5.1-8.6,7.7c-34.5,31.6-65.8,69.5-90.9,112c-27.2,46-47,97.2-57.9,149.5"/>
			<path class="st2" d="M891.6,301.5c-3,33.4-10.7,66.5-25.9,96.3c-4.7,9.2-10.2,18.1-16.4,26.4c-13.9,18.6-31.4,34.5-51.7,45.2
				c-18.3,9.6-37.7,14.6-57.4,18.4c-29.1,5.7-59.1,8.8-88.4,18c-7.4,2.3-14.7,5-21.9,8c-39.4,16.3-73.5,40-103.5,68
				c-2.8,2.7-5.7,5.3-8.4,8.1c-33.7,33.1-64.1,71.9-88.7,114.8c-26.7,46.4-46.5,97.6-58.1,149.8"/>
			<path class="st2" d="M890.8,308.2c-2.9,33.4-10.2,66.7-25.3,96.7c-4.7,9.2-10.1,18.2-16.3,26.5c-13.9,18.7-31.5,34.5-52,44.9
				c-18.5,9.3-38.2,13.8-58.3,17c-29.5,4.8-59.9,6.8-89.4,15.8c-7.5,2.3-14.8,5-21.9,7.9c-39.3,16.5-72.9,42.2-102.1,71.6
				c-2.8,2.8-5.5,5.6-8.2,8.5c-32.8,34.6-62.3,74.3-86.5,117.6c-26.2,46.9-46,98-58.3,150.2"/>
			<path class="st2" d="M890,314.8c-2.8,33.5-9.7,67-24.6,97.1c-4.6,9.3-10.1,18.3-16.3,26.6c-13.9,18.8-31.6,34.6-52.4,44.6
				c-18.8,9-38.8,13-59.1,15.5c-30,3.8-60.8,4.8-90.4,13.5c-7.5,2.2-14.8,4.9-22,7.9c-39.3,16.7-72.3,44.3-100.8,75.2
				c-2.7,2.9-5.4,5.9-8,8.8c-31.9,36.2-60.5,76.7-84.2,120.5c-25.7,47.3-45.5,98.4-58.6,150.6"/>
			<path class="st2" d="M889.2,321.5c-2.7,33.6-9.2,67.2-24,97.5c-4.6,9.3-10,18.3-16.2,26.7c-13.9,18.8-31.8,34.6-52.8,44.3
				c-19,8.7-39.3,12.1-59.9,14.1c-30.4,2.9-61.6,2.8-91.4,11.2c-7.6,2.1-14.9,4.8-22,7.9c-39.2,16.9-71.6,46.5-99.4,78.8
				c-2.6,3.1-5.2,6.1-7.8,9.2c-31,37.7-58.7,79.1-82,123.3c-25.1,47.8-45,98.7-58.8,150.9"/>
			<path class="st2" d="M888.4,328.2c-2.5,33.7-8.7,67.5-23.3,97.9c-4.5,9.4-9.9,18.4-16.1,26.8c-13.9,18.9-31.9,34.6-53.2,44
				c-19.3,8.5-39.8,11.3-60.7,12.7c-30.8,2-62.5,0.8-92.4,9c-7.6,2.1-15,4.7-22.1,7.8c-39.2,17.2-71,48.6-98,82.4
				c-2.6,3.2-5.1,6.4-7.6,9.6c-30.2,39.2-57,81.5-79.7,126.1c-24.6,48.2-44.5,99.1-59,151.3"/>
			<path class="st2" d="M887.6,334.8c-2.4,33.7-8.2,67.7-22.7,98.3s-38.4,57.6-69.6,70.6c-48.2,20.2-104.4,4.7-154.9,18
				c-53.8,14.1-93.7,58.6-126.2,103.8c-61,84.9-107.4,180.2-136.7,280.6"/>
		</g>
	</g>
</g>
<g>
	<g>
		<g class="st0">
			<g>
				
					<linearGradient id="SVGID_3_" gradientUnits="userSpaceOnUse" x1="778.6354" y1="465.7756" x2="784.5586" y2="465.7756" gradientTransform="matrix(1 0 0 -1 0 595.2756)">
					<stop  offset="0" style="stop-color:#FFFFFF"/>
					<stop  offset="1" style="stop-color:#FFFFFF;stop-opacity:0.2"/>
				</linearGradient>
				<path class="st3" d="M784.6,129.5c0,1.6-1.3,3-3,3c-1.6,0-3-1.3-3-3c0-1.6,1.3-3,3-3C783.2,126.5,784.6,127.8,784.6,129.5z"/>
			</g>
		</g>
		<g class="st0">
			<g>
				
					<linearGradient id="SVGID_4_" gradientUnits="userSpaceOnUse" x1="768.5292" y1="465.7756" x2="774.4524" y2="465.7756" gradientTransform="matrix(1 0 0 -1 0 595.2756)">
					<stop  offset="0" style="stop-color:#FFFFFF"/>
					<stop  offset="1" style="stop-color:#FFFFFF;stop-opacity:0.2"/>
				</linearGradient>
				<path class="st4" d="M774.5,129.5c0,1.6-1.3,3-3,3s-3-1.3-3-3c0-1.6,1.3-3,3-3S774.5,127.8,774.5,129.5z"/>
			</g>
		</g>
		<g class="st0">
			<g>
				
					<linearGradient id="SVGID_5_" gradientUnits="userSpaceOnUse" x1="758.423" y1="465.7756" x2="764.3463" y2="465.7756" gradientTransform="matrix(1 0 0 -1 0 595.2756)">
					<stop  offset="0" style="stop-color:#FFFFFF"/>
					<stop  offset="1" style="stop-color:#FFFFFF;stop-opacity:0.2"/>
				</linearGradient>
				<path class="st5" d="M764.3,129.5c0,1.6-1.3,3-3,3c-1.6,0-3-1.3-3-3c0-1.6,1.3-3,3-3S764.3,127.8,764.3,129.5z"/>
			</g>
		</g>
	</g>
	<g>
		<g class="st0">
			<g>
				
					<linearGradient id="SVGID_6_" gradientUnits="userSpaceOnUse" x1="778.6354" y1="475.3756" x2="784.5586" y2="475.3756" gradientTransform="matrix(1 0 0 -1 0 595.2756)">
					<stop  offset="0" style="stop-color:#FFFFFF"/>
					<stop  offset="1" style="stop-color:#FFFFFF;stop-opacity:0.2"/>
				</linearGradient>
				<path class="st6" d="M784.6,119.9c0,1.6-1.3,3-3,3c-1.6,0-3-1.3-3-3c0-1.6,1.3-3,3-3C783.2,116.9,784.6,118.3,784.6,119.9z"/>
			</g>
		</g>
		<g class="st0">
			<g>
				
					<linearGradient id="SVGID_7_" gradientUnits="userSpaceOnUse" x1="768.5292" y1="475.3756" x2="774.4524" y2="475.3756" gradientTransform="matrix(1 0 0 -1 0 595.2756)">
					<stop  offset="0" style="stop-color:#FFFFFF"/>
					<stop  offset="1" style="stop-color:#FFFFFF;stop-opacity:0.2"/>
				</linearGradient>
				<path class="st7" d="M774.5,119.9c0,1.6-1.3,3-3,3s-3-1.3-3-3c0-1.6,1.3-3,3-3S774.5,118.3,774.5,119.9z"/>
			</g>
		</g>
		<g class="st0">
			<g>
				
					<linearGradient id="SVGID_8_" gradientUnits="userSpaceOnUse" x1="758.423" y1="475.3756" x2="764.3463" y2="475.3756" gradientTransform="matrix(1 0 0 -1 0 595.2756)">
					<stop  offset="0" style="stop-color:#FFFFFF"/>
					<stop  offset="1" style="stop-color:#FFFFFF;stop-opacity:0.2"/>
				</linearGradient>
				<path class="st8" d="M764.3,119.9c0,1.6-1.3,3-3,3c-1.6,0-3-1.3-3-3c0-1.6,1.3-3,3-3S764.3,118.3,764.3,119.9z"/>
			</g>
		</g>
	</g>
	<g>
		<g class="st0">
			<g>
				
					<linearGradient id="SVGID_9_" gradientUnits="userSpaceOnUse" x1="778.6354" y1="484.9756" x2="784.5586" y2="484.9756" gradientTransform="matrix(1 0 0 -1 0 595.2756)">
					<stop  offset="0" style="stop-color:#FFFFFF"/>
					<stop  offset="1" style="stop-color:#FFFFFF;stop-opacity:0.2"/>
				</linearGradient>
				<path class="st9" d="M784.6,110.3c0,1.6-1.3,3-3,3c-1.6,0-3-1.3-3-3c0-1.6,1.3-3,3-3C783.2,107.4,784.6,108.7,784.6,110.3z"/>
			</g>
		</g>
		<g class="st0">
			<g>
				
					<linearGradient id="SVGID_10_" gradientUnits="userSpaceOnUse" x1="768.5292" y1="484.9756" x2="774.4524" y2="484.9756" gradientTransform="matrix(1 0 0 -1 0 595.2756)">
					<stop  offset="0" style="stop-color:#FFFFFF"/>
					<stop  offset="1" style="stop-color:#FFFFFF;stop-opacity:0.2"/>
				</linearGradient>
				<path class="st10" d="M774.5,110.3c0,1.6-1.3,3-3,3s-3-1.3-3-3c0-1.6,1.3-3,3-3S774.5,108.7,774.5,110.3z"/>
			</g>
		</g>
		<g class="st0">
			<g>
				
					<linearGradient id="SVGID_11_" gradientUnits="userSpaceOnUse" x1="758.423" y1="484.9756" x2="764.3463" y2="484.9756" gradientTransform="matrix(1 0 0 -1 0 595.2756)">
					<stop  offset="0" style="stop-color:#FFFFFF"/>
					<stop  offset="1" style="stop-color:#FFFFFF;stop-opacity:0.2"/>
				</linearGradient>
				<path class="st11" d="M764.3,110.3c0,1.6-1.3,3-3,3c-1.6,0-3-1.3-3-3c0-1.6,1.3-3,3-3C763,107.4,764.3,108.7,764.3,110.3z"/>
			</g>
		</g>
	</g>
	<g>
		<g class="st0">
			<g>
				
					<linearGradient id="SVGID_12_" gradientUnits="userSpaceOnUse" x1="778.6354" y1="494.5756" x2="784.5586" y2="494.5756" gradientTransform="matrix(1 0 0 -1 0 595.2756)">
					<stop  offset="0" style="stop-color:#FFFFFF"/>
					<stop  offset="1" style="stop-color:#FFFFFF;stop-opacity:0.2"/>
				</linearGradient>
				<path class="st12" d="M784.6,100.7c0,1.6-1.3,3-3,3c-1.6,0-3-1.3-3-3c0-1.6,1.3-3,3-3C783.2,97.8,784.6,99.1,784.6,100.7z"/>
			</g>
		</g>
		<g class="st0">
			<g>
				
					<linearGradient id="SVGID_13_" gradientUnits="userSpaceOnUse" x1="768.5292" y1="494.5756" x2="774.4524" y2="494.5756" gradientTransform="matrix(1 0 0 -1 0 595.2756)">
					<stop  offset="0" style="stop-color:#FFFFFF"/>
					<stop  offset="1" style="stop-color:#FFFFFF;stop-opacity:0.2"/>
				</linearGradient>
				<path class="st13" d="M774.5,100.7c0,1.6-1.3,3-3,3s-3-1.3-3-3c0-1.6,1.3-3,3-3S774.5,99.1,774.5,100.7z"/>
			</g>
		</g>
		<g class="st0">
			<g>
				
					<linearGradient id="SVGID_14_" gradientUnits="userSpaceOnUse" x1="758.423" y1="494.5756" x2="764.3463" y2="494.5756" gradientTransform="matrix(1 0 0 -1 0 595.2756)">
					<stop  offset="0" style="stop-color:#FFFFFF"/>
					<stop  offset="1" style="stop-color:#FFFFFF;stop-opacity:0.2"/>
				</linearGradient>
				<path class="st14" d="M764.3,100.7c0,1.6-1.3,3-3,3c-1.6,0-3-1.3-3-3c0-1.6,1.3-3,3-3C763,97.8,764.3,99.1,764.3,100.7z"/>
			</g>
		</g>
	</g>
	<g>
		<g class="st0">
			<g>
				
					<linearGradient id="SVGID_15_" gradientUnits="userSpaceOnUse" x1="778.6354" y1="504.0756" x2="784.5586" y2="504.0756" gradientTransform="matrix(1 0 0 -1 0 595.2756)">
					<stop  offset="0" style="stop-color:#FFFFFF"/>
					<stop  offset="1" style="stop-color:#FFFFFF;stop-opacity:0.2"/>
				</linearGradient>
				<path class="st15" d="M784.6,91.2c0,1.6-1.3,3-3,3c-1.6,0-3-1.3-3-3c0-1.6,1.3-3,3-3C783.2,88.2,784.6,89.5,784.6,91.2z"/>
			</g>
		</g>
		<g class="st0">
			<g>
				
					<linearGradient id="SVGID_16_" gradientUnits="userSpaceOnUse" x1="768.5292" y1="504.0756" x2="774.4524" y2="504.0756" gradientTransform="matrix(1 0 0 -1 0 595.2756)">
					<stop  offset="0" style="stop-color:#FFFFFF"/>
					<stop  offset="1" style="stop-color:#FFFFFF;stop-opacity:0.2"/>
				</linearGradient>
				<path class="st16" d="M774.5,91.2c0,1.6-1.3,3-3,3s-3-1.3-3-3c0-1.6,1.3-3,3-3S774.5,89.5,774.5,91.2z"/>
			</g>
		</g>
		<g class="st0">
			<g>
				
					<linearGradient id="SVGID_17_" gradientUnits="userSpaceOnUse" x1="758.423" y1="504.0756" x2="764.3463" y2="504.0756" gradientTransform="matrix(1 0 0 -1 0 595.2756)">
					<stop  offset="0" style="stop-color:#FFFFFF"/>
					<stop  offset="1" style="stop-color:#FFFFFF;stop-opacity:0.2"/>
				</linearGradient>
				<path class="st17" d="M764.3,91.2c0,1.6-1.3,3-3,3c-1.6,0-3-1.3-3-3c0-1.6,1.3-3,3-3S764.3,89.5,764.3,91.2z"/>
			</g>
		</g>
	</g>
	<g>
		<g class="st0">
			<g>
				
					<linearGradient id="SVGID_18_" gradientUnits="userSpaceOnUse" x1="778.6354" y1="513.6756" x2="784.5586" y2="513.6756" gradientTransform="matrix(1 0 0 -1 0 595.2756)">
					<stop  offset="0" style="stop-color:#FFFFFF"/>
					<stop  offset="1" style="stop-color:#FFFFFF;stop-opacity:0.2"/>
				</linearGradient>
				<path class="st18" d="M784.6,81.6c0,1.6-1.3,3-3,3c-1.6,0-3-1.3-3-3c0-1.6,1.3-3,3-3C783.2,78.6,784.6,80,784.6,81.6z"/>
			</g>
		</g>
		<g class="st0">
			<g>
				
					<linearGradient id="SVGID_19_" gradientUnits="userSpaceOnUse" x1="768.5292" y1="513.6756" x2="774.4524" y2="513.6756" gradientTransform="matrix(1 0 0 -1 0 595.2756)">
					<stop  offset="0" style="stop-color:#FFFFFF"/>
					<stop  offset="1" style="stop-color:#FFFFFF;stop-opacity:0.2"/>
				</linearGradient>
				<path class="st19" d="M774.5,81.6c0,1.6-1.3,3-3,3s-3-1.3-3-3c0-1.6,1.3-3,3-3S774.5,80,774.5,81.6z"/>
			</g>
		</g>
		<g class="st0">
			<g>
				
					<linearGradient id="SVGID_20_" gradientUnits="userSpaceOnUse" x1="758.423" y1="513.6756" x2="764.3463" y2="513.6756" gradientTransform="matrix(1 0 0 -1 0 595.2756)">
					<stop  offset="0" style="stop-color:#FFFFFF"/>
					<stop  offset="1" style="stop-color:#FFFFFF;stop-opacity:0.2"/>
				</linearGradient>
				<path class="st20" d="M764.3,81.6c0,1.6-1.3,3-3,3c-1.6,0-3-1.3-3-3c0-1.6,1.3-3,3-3S764.3,80,764.3,81.6z"/>
			</g>
		</g>
	</g>
</g>
<g>
	<g>
		<defs>
			<rect id="SVGID_21_" x="753.2" y="187.4" width="72.5" height="99.2"/>
		</defs>
		<clipPath id="SVGID_22_">
			<use xlink:href="#SVGID_21_"  style="overflow:visible;"/>
		</clipPath>
		<g class="st21">
		</g>
	</g>
</g>
<g>
	<g>
		<defs>
			<rect id="SVGID_23_" x="315.8" y="56" width="211.2" height="225"/>
		</defs>
		<clipPath id="SVGID_24_">
			<use xlink:href="#SVGID_23_"  style="overflow:visible;"/>
		</clipPath>
		<g class="st22">
			<line class="st2" x1="516.1" y1="82.1" x2="257.2" y2="286.3"/>
			<line class="st2" x1="484.6" y1="124.9" x2="225.7" y2="329.2"/>
		</g>
	</g>
</g>
<g>
	<ellipse class="st23" cx="315.5" cy="510.3" rx="36.8" ry="36.8"/>
</g>
<g>
	<g>
		<polygon class="st23" points="201.3,107.2 220.8,81.5 224.8,113.5 254.5,101 242,130.7 274,134.8 248.4,154.3 274,173.8 
			242,177.8 254.5,207.6 224.8,195.1 220.8,227.1 201.3,201.4 181.8,227.1 177.7,195.1 148,207.6 160.5,177.8 128.5,173.8 
			154.2,154.3 128.5,134.8 160.5,130.7 148,101 177.7,113.5 181.8,81.5 		"/>
	</g>
	<ellipse class="st24" cx="201.3" cy="154.3" rx="20.5" ry="20.5"/>
</g>
</svg>
