<?xml version="1.0" encoding="utf-8"?>
<!-- Generator: Adobe Illustrator 25.2.0, SVG Export Plug-In . SVG Version: 6.00 Build 0)  -->
<svg version="1.1" id="Layer_1" xmlns="http://www.w3.org/2000/svg" xmlns:xlink="http://www.w3.org/1999/xlink" x="0px" y="0px"
	 viewBox="0 0 545.1 595.3" style="enable-background:new 0 0 545.1 595.3;" xml:space="preserve">
<style type="text/css">
	.st0{clip-path:url(#SVGID_1_);}
	.st1{clip-path:url(#SVGID_3_);}
	.st2{opacity:0.5;}
	.st3{clip-path:url(#SVGID_6_);}
	.st4{fill:none;stroke:#FFFFFF;stroke-miterlimit:10;}
	.st5{fill:url(#SVGID_7_);}
	.st6{fill:url(#SVGID_8_);}
	.st7{fill:url(#SVGID_9_);}
	.st8{fill:url(#SVGID_10_);}
	.st9{fill:url(#SVGID_11_);}
	.st10{fill:url(#SVGID_12_);}
	.st11{fill:url(#SVGID_13_);}
	.st12{fill:url(#SVGID_14_);}
	.st13{fill:url(#SVGID_15_);}
	.st14{fill:url(#SVGID_16_);}
	.st15{fill:url(#SVGID_17_);}
	.st16{fill:url(#SVGID_18_);}
	.st17{fill:url(#SVGID_19_);}
	.st18{fill:url(#SVGID_20_);}
	.st19{fill:url(#SVGID_21_);}
	.st20{fill:url(#SVGID_22_);}
	.st21{fill:url(#SVGID_23_);}
	.st22{fill:url(#SVGID_24_);}
	.st23{opacity:0.2;clip-path:url(#SVGID_25_);}
	.st24{opacity:0.5;clip-path:url(#SVGID_26_);}
	.st25{fill:#010101;}
</style>
<g>
	<g>
		<defs>
			
				<rect id="SVGID_31_" x="0" y="0" transform="matrix(-1 -4.490243e-11 4.490243e-11 -1 510.2234 595.2756)" width="510.2" height="595.3"/>
		</defs>
		<clipPath id="SVGID_1_">
			<use xlink:href="#SVGID_31_"  style="overflow:visible;"/>
		</clipPath>
		<g class="st0">
			<g>
				<defs>
					<rect id="SVGID_2_" x="-5.6" y="-4.1" width="515.7" height="603.4"/>
				</defs>
				<clipPath id="SVGID_3_">
					<use xlink:href="#SVGID_2_"  style="overflow:visible;"/>
				</clipPath>
				<g class="st1">
					<defs>
						<rect id="SVGID_4_" x="-5.6" y="-4.1" width="515.7" height="603.4"/>
					</defs>
					<clipPath id="SVGID_5_">
						<use xlink:href="#SVGID_4_"  style="overflow:visible;"/>
					</clipPath>
					<g style="clip-path:url(#SVGID_5_);">
						
							<image style="overflow:visible;" width="1075" height="1258" xlink:href="9EF08D5A.jpg"  transform="matrix(0.48 0 0 0.48 -5.76 -4.32)">
						</image>
					</g>
				</g>
			</g>
		</g>
	</g>
	<g class="st2">
		<defs>
			
				<rect id="SVGID_37_" x="0" y="227.2" transform="matrix(-1 -4.490065e-11 4.490065e-11 -1 507.3263 822.5031)" class="st2" width="507.3" height="368"/>
		</defs>
		<clipPath id="SVGID_6_">
			<use xlink:href="#SVGID_37_"  style="overflow:visible;"/>
		</clipPath>
		<g class="st3">
			<path class="st4" d="M475,689.8c0-52.5-19.9-104.7-54.7-144c-34.8-39.2-84.4-65.1-136.5-71.4c-41.8-5-85.3,2.1-125.5-10.6
				c-36-11.4-65.2-37.5-93.2-62.9c-31.7-28.7-63.5-57.6-89.9-91.2c-26.4-33.6-47.3-72.6-54-114.8"/>
			<path class="st4" d="M-78,201.5c5,32.3,18,62.9,35.7,90.6c5.5,8.5,11.3,16.8,17.6,24.8c13.9,17.8,29.5,34.2,45.9,49.6
				c14.7,13.9,30,26.9,45.3,39.9c22.8,19.3,46.3,39,73.3,52c6.8,3.3,13.8,6.2,21.1,8.5c40.1,12.9,83,7.8,124.1,14.2
				c3.9,0.6,7.8,1.3,11.7,2.2c46.8,10,90.6,35.8,122.4,72.4c34.3,39.7,54.2,91.9,54.9,144.3"/>
			<path class="st4" d="M-77.2,208.2c4.9,32.4,17.5,63.1,35.1,90.9c5.4,8.6,11.3,16.9,17.5,24.9c13.9,17.8,29.6,34.2,46.2,49.3
				c14.9,13.6,30.5,26.1,46.1,38.5c23.2,18.4,47.2,37,74.3,49.8c6.8,3.2,13.9,6.1,21.1,8.5c40,13.2,82.4,9.9,122.7,17.8
				c3.8,0.7,7.6,1.6,11.4,2.6c45.9,11.6,88.9,38.2,120.1,75.3c33.8,40.1,53.7,92.2,55.1,144.7"/>
			<path class="st4" d="M-76.4,214.9c4.7,32.5,17.1,63.4,34.4,91.3c5.4,8.6,11.2,17,17.4,25c13.9,17.9,29.7,34.2,46.6,49
				c15.2,13.3,31,25.3,46.9,37c23.6,17.5,48,34.9,75.3,47.5c6.9,3.2,13.9,6,21.2,8.4c40,13.4,81.8,12.1,121.4,21.4
				c3.8,0.9,7.5,1.9,11.2,2.9c45.1,13.1,87.1,40.6,117.9,78.1c33.3,40.6,53.2,92.6,55.4,145.1"/>
			<path class="st4" d="M-75.6,221.5c4.6,32.6,16.6,63.6,33.8,91.7c5.3,8.7,11.1,17.1,17.3,25.1c13.9,18,29.9,34.2,47,48.7
				c15.4,13,31.5,24.5,47.7,35.6c24.1,16.6,48.9,32.9,76.3,45.2c6.9,3.1,14,6,21.2,8.4c40,13.6,81.1,14.2,120,25
				c3.7,1,7.4,2.1,11,3.3c44.2,14.6,85.3,43,115.6,80.9c32.8,41,52.7,93,55.6,145.4"/>
			<path class="st4" d="M-74.8,228.2c4.5,32.6,16.1,63.8,33.1,92.1c5.3,8.7,11,17.2,17.3,25.2c13.9,18,30,34.3,47.4,48.4
				c15.7,12.7,32.1,23.6,48.5,34.2c24.5,15.7,49.7,30.9,77.3,43c7,3,14,5.9,21.3,8.4c39.9,13.8,80.5,16.4,118.6,28.6
				c3.6,1.2,7.2,2.4,10.8,3.7c43.3,16.2,83.6,45.4,113.4,83.7c32.3,41.5,52.1,93.4,55.8,145.8"/>
			<path class="st4" d="M-73.9,234.9c4.3,32.7,15.6,64.1,32.5,92.5c5.2,8.8,11,17.2,17.2,25.3c13.9,18.1,30.1,34.3,47.8,48.1
				c15.9,12.4,32.6,22.8,49.3,32.7c24.9,14.8,50.6,28.9,78.3,40.7c7,3,14.1,5.8,21.3,8.3c39.9,14,79.9,18.5,117.2,32.2
				c3.6,1.3,7.1,2.7,10.6,4.1c42.4,17.7,81.8,47.8,111.1,86.6c31.8,41.9,51.6,93.8,56,146.2"/>
			<path class="st4" d="M-73.1,241.5c4.2,32.8,15.1,64.3,31.8,92.9c5.2,8.8,10.9,17.3,17.1,25.4C-10.3,378,6,394.1,24,407.7
				c16.1,12.1,33.1,22,50.2,31.3c25.3,13.9,51.4,26.9,79.3,38.4c7.1,2.9,14.2,5.7,21.4,8.3c39.8,14.3,79.2,20.7,115.9,35.7
				c3.5,1.4,6.9,2.9,10.4,4.5c41.6,19.3,80,50.2,108.9,89.4c31.3,42.4,51.1,94.2,56.2,146.5"/>
			<path class="st4" d="M-72.3,248.2c4.1,32.8,14.6,64.6,31.2,93.3c5.1,8.9,10.8,17.4,17,25.5c13.9,18.2,30.4,34.3,48.6,47.5
				c16.4,11.9,33.6,21.2,51,29.9c25.7,13,52.3,24.9,80.3,36.2c7.1,2.9,14.2,5.6,21.4,8.3c39.8,14.5,78.6,22.8,114.5,39.3
				c3.4,1.6,6.8,3.2,10.1,4.9c40.7,20.8,78.2,52.6,106.7,92.2c30.8,42.9,50.6,94.5,56.4,146.9"/>
			<path class="st4" d="M-71.5,254.9c4,32.9,14.1,64.8,30.5,93.6c5.1,8.9,10.7,17.5,17,25.6c13.9,18.3,30.5,34.4,49,47.2
				C41.5,433,59,441.7,76.7,449.8c26.2,12.1,53.1,22.9,81.3,33.9c7.1,2.8,14.3,5.6,21.5,8.2c39.7,14.7,78,25,113.1,42.9
				c3.3,1.7,6.6,3.5,9.9,5.3c39.8,22.3,76.5,55.1,104.4,95.1c30.3,43.3,50.1,94.9,56.6,147.3"/>
			<path class="st4" d="M-70.7,261.5c3.8,33,13.6,65.1,29.9,94c5,8.9,10.7,17.6,16.9,25.8c13.9,18.3,30.6,34.4,49.3,46.9
				c16.9,11.3,34.6,19.5,52.6,27c26.6,11.1,54,20.9,82.3,31.6c7.2,2.7,14.4,5.5,21.5,8.2c39.7,14.9,77.3,27.1,111.8,46.5
				c3.3,1.8,6.5,3.7,9.7,5.7c38.9,23.9,74.7,57.5,102.2,97.9c29.7,43.8,49.6,95.3,56.9,147.7"/>
			<path class="st4" d="M-69.9,268.2c3.7,33,13.1,65.3,29.2,94.4c5,9,10.6,17.7,16.8,25.9c13.9,18.4,30.8,34.4,49.7,46.6
				c17.1,11,35.2,18.7,53.4,25.6c27,10.2,54.8,18.9,83.4,29.4c7.2,2.7,14.4,5.4,21.6,8.2c39.6,15.2,76.7,29.3,110.4,50.1
				c3.2,2,6.4,4,9.5,6.1c38.1,25.4,72.9,59.9,99.9,100.7c29.2,44.2,49.1,95.7,57.1,148"/>
			<path class="st4" d="M-69.1,274.8c3.6,33.1,12.6,65.5,28.6,94.8c4.9,9,10.5,17.7,16.7,26c13.9,18.4,30.9,34.4,50.1,46.4
				c17.3,10.7,35.7,17.9,54.2,24.1c27.4,9.3,55.7,16.9,84.4,27.1c7.3,2.6,14.5,5.3,21.7,8.1c39.6,15.4,76.1,31.4,109,53.7
				c3.1,2.1,6.2,4.3,9.3,6.5c37.2,26.9,71.2,62.3,97.7,103.5c28.7,44.7,48.6,96.1,57.3,148.4"/>
			<path class="st4" d="M-68.3,281.5c3.4,33.2,12.1,65.8,27.9,95.2c4.9,9.1,10.4,17.8,16.7,26.1c13.9,18.5,31,34.5,50.5,46.1
				c17.6,10.4,36.2,17.1,55,22.7c27.9,8.4,56.5,14.9,85.4,24.8c7.3,2.5,14.5,5.3,21.7,8.1c39.5,15.6,75.4,33.6,107.7,57.3
				c3.1,2.2,6.1,4.5,9.1,6.9c36.3,28.5,69.4,64.7,95.5,106.4c28.2,45.1,48.1,96.5,57.5,148.8"/>
			<path class="st4" d="M-67.5,288.2c3.3,33.2,11.6,66,27.3,95.6c4.8,9.1,10.4,17.9,16.6,26.2c13.9,18.5,31.1,34.5,50.9,45.8
				C45.1,465.9,63.9,472,83.1,477c28.3,7.5,57.4,12.9,86.4,22.6c7.4,2.5,14.6,5.2,21.8,8.1c39.5,15.8,74.8,35.7,106.3,60.9
				c3,2.4,5.9,4.8,8.9,7.3c35.4,30,67.6,67.1,93.2,109.2c27.7,45.6,47.6,96.9,57.7,149.1"/>
			<path class="st4" d="M-66.7,294.8c3.2,33.3,11.2,66.3,26.6,96c4.8,9.2,10.3,18,16.5,26.3c13.9,18.6,31.3,34.5,51.3,45.5
				c18.1,9.9,37.2,15.4,56.7,19.8c28.7,6.6,58.2,10.8,87.4,20.3c7.4,2.4,14.7,5.1,21.8,8c39.4,16,74.2,37.9,104.9,64.5
				c2.9,2.5,5.8,5.1,8.6,7.7c34.5,31.6,65.8,69.5,91,112c27.2,46,47.1,97.2,57.9,149.5"/>
			<path class="st4" d="M-65.9,301.5c3,33.4,10.7,66.5,26,96.4c4.7,9.2,10.2,18.1,16.4,26.4c13.9,18.7,31.4,34.5,51.7,45.2
				c18.3,9.6,37.7,14.6,57.5,18.4c29.1,5.7,59.1,8.8,88.4,18c7.4,2.3,14.7,5,21.9,8c39.4,16.3,73.5,40.1,103.5,68
				c2.8,2.7,5.7,5.3,8.4,8.1c33.7,33.1,64.1,71.9,88.7,114.8c26.7,46.5,46.5,97.6,58.1,149.9"/>
			<path class="st4" d="M-65.1,308.2c2.9,33.5,10.2,66.8,25.3,96.7c4.7,9.2,10.1,18.2,16.4,26.5c13.9,18.7,31.5,34.6,52.1,44.9
				c18.5,9.3,38.3,13.8,58.3,17c29.5,4.8,59.9,6.8,89.4,15.8c7.5,2.3,14.8,5,21.9,7.9c39.3,16.5,72.9,42.2,102.2,71.6
				c2.8,2.8,5.5,5.6,8.2,8.5c32.8,34.6,62.3,74.3,86.5,117.7c26.2,46.9,46,98,58.4,150.2"/>
			<path class="st4" d="M-64.3,314.8c2.8,33.5,9.7,67,24.7,97.1c4.6,9.3,10.1,18.3,16.3,26.6c13.9,18.8,31.6,34.6,52.4,44.6
				c18.8,9,38.8,13,59.1,15.5c30,3.8,60.8,4.8,90.4,13.5c7.5,2.2,14.8,4.9,22,7.9c39.3,16.7,72.3,44.4,100.8,75.2
				c2.7,2.9,5.4,5.9,8,8.9c31.9,36.2,60.5,76.8,84.2,120.5c25.7,47.4,45.5,98.4,58.6,150.6"/>
			<path class="st4" d="M-63.5,321.5c2.7,33.6,9.2,67.2,24,97.5c4.6,9.3,10,18.3,16.2,26.7c13.9,18.8,31.8,34.6,52.8,44.3
				c19,8.7,39.3,12.1,59.9,14.1c30.4,2.9,61.6,2.8,91.4,11.3c7.6,2.1,14.9,4.8,22,7.9c39.2,16.9,71.6,46.5,99.4,78.8
				c2.6,3.1,5.2,6.1,7.8,9.2c31,37.7,58.8,79.2,82,123.3c25.2,47.8,45,98.8,58.8,151"/>
			<path class="st4" d="M-62.7,328.2c2.5,33.7,8.7,67.5,23.4,97.9c4.5,9.4,9.9,18.4,16.1,26.9c13.9,18.9,31.9,34.6,53.2,44
				c19.3,8.5,39.8,11.3,60.7,12.7c30.8,2,62.5,0.8,92.5,9c7.6,2.1,15,4.7,22.1,7.8c39.2,17.2,71,48.7,98.1,82.4
				c2.6,3.2,5.1,6.4,7.6,9.6c30.2,39.3,57,81.6,79.8,126.2c24.6,48.3,44.5,99.2,59,151.4"/>
			<path class="st4" d="M-61.9,334.8c2.4,33.7,8.2,67.7,22.7,98.3s38.5,57.6,69.7,70.6c48.2,20.2,104.4,4.7,155,18
				c53.8,14.2,93.8,58.7,126.2,103.8c61,84.9,107.4,180.3,136.7,280.7"/>
		</g>
	</g>
	<g>
		<g>
			<g class="st2">
				<g>
					
						<linearGradient id="SVGID_7_" gradientUnits="userSpaceOnUse" x1="-241.7721" y1="129.395" x2="-235.8468" y2="129.395" gradientTransform="matrix(-1 0 0 1 -194.6683 0)">
						<stop  offset="0" style="stop-color:#FFFFFF"/>
						<stop  offset="1" style="stop-color:#FFFFFF;stop-opacity:0.2"/>
					</linearGradient>
					<path class="st5" d="M41.2,129.4c0,1.6,1.3,3,3,3s3-1.3,3-3c0-1.6-1.3-3-3-3S41.2,127.8,41.2,129.4z"/>
				</g>
			</g>
			<g class="st2">
				<g>
					
						<linearGradient id="SVGID_8_" gradientUnits="userSpaceOnUse" x1="-251.8818" y1="129.395" x2="-245.9565" y2="129.395" gradientTransform="matrix(-1 0 0 1 -194.6683 0)">
						<stop  offset="0" style="stop-color:#FFFFFF"/>
						<stop  offset="1" style="stop-color:#FFFFFF;stop-opacity:0.2"/>
					</linearGradient>
					<path class="st6" d="M51.3,129.4c0,1.6,1.3,3,3,3c1.6,0,3-1.3,3-3c0-1.6-1.3-3-3-3C52.6,126.4,51.3,127.8,51.3,129.4z"/>
				</g>
			</g>
			<g class="st2">
				<g>
					
						<linearGradient id="SVGID_9_" gradientUnits="userSpaceOnUse" x1="-261.9915" y1="129.395" x2="-256.0661" y2="129.395" gradientTransform="matrix(-1 0 0 1 -194.6683 0)">
						<stop  offset="0" style="stop-color:#FFFFFF"/>
						<stop  offset="1" style="stop-color:#FFFFFF;stop-opacity:0.2"/>
					</linearGradient>
					<path class="st7" d="M61.4,129.4c0,1.6,1.3,3,3,3c1.6,0,3-1.3,3-3c0-1.6-1.3-3-3-3C62.7,126.4,61.4,127.8,61.4,129.4z"/>
				</g>
			</g>
		</g>
		<g>
			<g class="st2">
				<g>
					
						<linearGradient id="SVGID_10_" gradientUnits="userSpaceOnUse" x1="-241.7721" y1="119.8167" x2="-235.8468" y2="119.8167" gradientTransform="matrix(-1 0 0 1 -194.6683 0)">
						<stop  offset="0" style="stop-color:#FFFFFF"/>
						<stop  offset="1" style="stop-color:#FFFFFF;stop-opacity:0.2"/>
					</linearGradient>
					<path class="st8" d="M41.2,119.8c0,1.6,1.3,3,3,3s3-1.3,3-3c0-1.6-1.3-3-3-3S41.2,118.2,41.2,119.8z"/>
				</g>
			</g>
			<g class="st2">
				<g>
					
						<linearGradient id="SVGID_11_" gradientUnits="userSpaceOnUse" x1="-251.8818" y1="119.8167" x2="-245.9565" y2="119.8167" gradientTransform="matrix(-1 0 0 1 -194.6683 0)">
						<stop  offset="0" style="stop-color:#FFFFFF"/>
						<stop  offset="1" style="stop-color:#FFFFFF;stop-opacity:0.2"/>
					</linearGradient>
					<path class="st9" d="M51.3,119.8c0,1.6,1.3,3,3,3c1.6,0,3-1.3,3-3c0-1.6-1.3-3-3-3C52.6,116.9,51.3,118.2,51.3,119.8z"/>
				</g>
			</g>
			<g class="st2">
				<g>
					
						<linearGradient id="SVGID_12_" gradientUnits="userSpaceOnUse" x1="-261.9915" y1="119.8167" x2="-256.0661" y2="119.8167" gradientTransform="matrix(-1 0 0 1 -194.6683 0)">
						<stop  offset="0" style="stop-color:#FFFFFF"/>
						<stop  offset="1" style="stop-color:#FFFFFF;stop-opacity:0.2"/>
					</linearGradient>
					<path class="st10" d="M61.4,119.8c0,1.6,1.3,3,3,3c1.6,0,3-1.3,3-3c0-1.6-1.3-3-3-3C62.7,116.9,61.4,118.2,61.4,119.8z"/>
				</g>
			</g>
		</g>
		<g>
			<g class="st2">
				<g>
					
						<linearGradient id="SVGID_13_" gradientUnits="userSpaceOnUse" x1="-241.7721" y1="110.2385" x2="-235.8468" y2="110.2385" gradientTransform="matrix(-1 0 0 1 -194.6683 0)">
						<stop  offset="0" style="stop-color:#FFFFFF"/>
						<stop  offset="1" style="stop-color:#FFFFFF;stop-opacity:0.2"/>
					</linearGradient>
					<path class="st11" d="M41.2,110.2c0,1.6,1.3,3,3,3s3-1.3,3-3c0-1.6-1.3-3-3-3S41.2,108.6,41.2,110.2z"/>
				</g>
			</g>
			<g class="st2">
				<g>
					
						<linearGradient id="SVGID_14_" gradientUnits="userSpaceOnUse" x1="-251.8818" y1="110.2385" x2="-245.9565" y2="110.2385" gradientTransform="matrix(-1 0 0 1 -194.6683 0)">
						<stop  offset="0" style="stop-color:#FFFFFF"/>
						<stop  offset="1" style="stop-color:#FFFFFF;stop-opacity:0.2"/>
					</linearGradient>
					<path class="st12" d="M51.3,110.2c0,1.6,1.3,3,3,3c1.6,0,3-1.3,3-3c0-1.6-1.3-3-3-3C52.6,107.3,51.3,108.6,51.3,110.2z"/>
				</g>
			</g>
			<g class="st2">
				<g>
					
						<linearGradient id="SVGID_15_" gradientUnits="userSpaceOnUse" x1="-261.9915" y1="110.2385" x2="-256.0661" y2="110.2385" gradientTransform="matrix(-1 0 0 1 -194.6683 0)">
						<stop  offset="0" style="stop-color:#FFFFFF"/>
						<stop  offset="1" style="stop-color:#FFFFFF;stop-opacity:0.2"/>
					</linearGradient>
					<path class="st13" d="M61.4,110.2c0,1.6,1.3,3,3,3c1.6,0,3-1.3,3-3c0-1.6-1.3-3-3-3C62.7,107.3,61.4,108.6,61.4,110.2z"/>
				</g>
			</g>
		</g>
		<g>
			<g class="st2">
				<g>
					
						<linearGradient id="SVGID_16_" gradientUnits="userSpaceOnUse" x1="-241.7721" y1="100.6603" x2="-235.8468" y2="100.6603" gradientTransform="matrix(-1 0 0 1 -194.6683 0)">
						<stop  offset="0" style="stop-color:#FFFFFF"/>
						<stop  offset="1" style="stop-color:#FFFFFF;stop-opacity:0.2"/>
					</linearGradient>
					<path class="st14" d="M41.2,100.7c0,1.6,1.3,3,3,3s3-1.3,3-3c0-1.6-1.3-3-3-3S41.2,99,41.2,100.7z"/>
				</g>
			</g>
			<g class="st2">
				<g>
					
						<linearGradient id="SVGID_17_" gradientUnits="userSpaceOnUse" x1="-251.8818" y1="100.6603" x2="-245.9565" y2="100.6603" gradientTransform="matrix(-1 0 0 1 -194.6683 0)">
						<stop  offset="0" style="stop-color:#FFFFFF"/>
						<stop  offset="1" style="stop-color:#FFFFFF;stop-opacity:0.2"/>
					</linearGradient>
					<path class="st15" d="M51.3,100.7c0,1.6,1.3,3,3,3c1.6,0,3-1.3,3-3c0-1.6-1.3-3-3-3C52.6,97.7,51.3,99,51.3,100.7z"/>
				</g>
			</g>
			<g class="st2">
				<g>
					
						<linearGradient id="SVGID_18_" gradientUnits="userSpaceOnUse" x1="-261.9915" y1="100.6603" x2="-256.0661" y2="100.6603" gradientTransform="matrix(-1 0 0 1 -194.6683 0)">
						<stop  offset="0" style="stop-color:#FFFFFF"/>
						<stop  offset="1" style="stop-color:#FFFFFF;stop-opacity:0.2"/>
					</linearGradient>
					<path class="st16" d="M61.4,100.7c0,1.6,1.3,3,3,3c1.6,0,3-1.3,3-3c0-1.6-1.3-3-3-3C62.7,97.7,61.4,99,61.4,100.7z"/>
				</g>
			</g>
		</g>
		<g>
			<g class="st2">
				<g>
					
						<linearGradient id="SVGID_19_" gradientUnits="userSpaceOnUse" x1="-241.7721" y1="91.082" x2="-235.8468" y2="91.082" gradientTransform="matrix(-1 0 0 1 -194.6683 0)">
						<stop  offset="0" style="stop-color:#FFFFFF"/>
						<stop  offset="1" style="stop-color:#FFFFFF;stop-opacity:0.2"/>
					</linearGradient>
					<path class="st17" d="M41.2,91.1c0,1.6,1.3,3,3,3s3-1.3,3-3c0-1.6-1.3-3-3-3S41.2,89.4,41.2,91.1z"/>
				</g>
			</g>
			<g class="st2">
				<g>
					
						<linearGradient id="SVGID_20_" gradientUnits="userSpaceOnUse" x1="-251.8818" y1="91.082" x2="-245.9565" y2="91.082" gradientTransform="matrix(-1 0 0 1 -194.6683 0)">
						<stop  offset="0" style="stop-color:#FFFFFF"/>
						<stop  offset="1" style="stop-color:#FFFFFF;stop-opacity:0.2"/>
					</linearGradient>
					<path class="st18" d="M51.3,91.1c0,1.6,1.3,3,3,3c1.6,0,3-1.3,3-3c0-1.6-1.3-3-3-3C52.6,88.1,51.3,89.4,51.3,91.1z"/>
				</g>
			</g>
			<g class="st2">
				<g>
					
						<linearGradient id="SVGID_21_" gradientUnits="userSpaceOnUse" x1="-261.9915" y1="91.082" x2="-256.0661" y2="91.082" gradientTransform="matrix(-1 0 0 1 -194.6683 0)">
						<stop  offset="0" style="stop-color:#FFFFFF"/>
						<stop  offset="1" style="stop-color:#FFFFFF;stop-opacity:0.2"/>
					</linearGradient>
					<path class="st19" d="M61.4,91.1c0,1.6,1.3,3,3,3c1.6,0,3-1.3,3-3c0-1.6-1.3-3-3-3C62.7,88.1,61.4,89.4,61.4,91.1z"/>
				</g>
			</g>
		</g>
		<g>
			<g class="st2">
				<g>
					
						<linearGradient id="SVGID_22_" gradientUnits="userSpaceOnUse" x1="-241.7721" y1="81.5038" x2="-235.8468" y2="81.5038" gradientTransform="matrix(-1 0 0 1 -194.6683 0)">
						<stop  offset="0" style="stop-color:#FFFFFF"/>
						<stop  offset="1" style="stop-color:#FFFFFF;stop-opacity:0.2"/>
					</linearGradient>
					<path class="st20" d="M41.2,81.5c0,1.6,1.3,3,3,3s3-1.3,3-3c0-1.6-1.3-3-3-3S41.2,79.9,41.2,81.5z"/>
				</g>
			</g>
			<g class="st2">
				<g>
					
						<linearGradient id="SVGID_23_" gradientUnits="userSpaceOnUse" x1="-251.8818" y1="81.5038" x2="-245.9565" y2="81.5038" gradientTransform="matrix(-1 0 0 1 -194.6683 0)">
						<stop  offset="0" style="stop-color:#FFFFFF"/>
						<stop  offset="1" style="stop-color:#FFFFFF;stop-opacity:0.2"/>
					</linearGradient>
					<path class="st21" d="M51.3,81.5c0,1.6,1.3,3,3,3c1.6,0,3-1.3,3-3c0-1.6-1.3-3-3-3C52.6,78.5,51.3,79.9,51.3,81.5z"/>
				</g>
			</g>
			<g class="st2">
				<g>
					
						<linearGradient id="SVGID_24_" gradientUnits="userSpaceOnUse" x1="-261.9915" y1="81.5038" x2="-256.0661" y2="81.5038" gradientTransform="matrix(-1 0 0 1 -194.6683 0)">
						<stop  offset="0" style="stop-color:#FFFFFF"/>
						<stop  offset="1" style="stop-color:#FFFFFF;stop-opacity:0.2"/>
					</linearGradient>
					<path class="st22" d="M61.4,81.5c0,1.6,1.3,3,3,3c1.6,0,3-1.3,3-3c0-1.6-1.3-3-3-3C62.7,78.5,61.4,79.9,61.4,81.5z"/>
				</g>
			</g>
		</g>
	</g>
	<g>
		<defs>
			
				<rect id="SVGID_57_" x="0" y="187.3" transform="matrix(-1 -4.489665e-11 4.489665e-11 -1 72.5224 473.8673)" width="72.5" height="99.2"/>
		</defs>
		<clipPath id="SVGID_25_">
			<use xlink:href="#SVGID_57_"  style="overflow:visible;"/>
		</clipPath>
		<g class="st23">
			
				<image style="overflow:visible;" width="735" height="634" xlink:href="9EF08D5E.png"  transform="matrix(0.24 0 0 0.24 -73.44 154.08)">
			</image>
		</g>
	</g>
	<g>
		<defs>
			
				<rect id="SVGID_59_" x="298.8" y="55.9" transform="matrix(-1 -4.490287e-11 4.490287e-11 -1 808.8657 336.7911)" width="211.3" height="225"/>
		</defs>
		<clipPath id="SVGID_26_">
			<use xlink:href="#SVGID_59_"  style="overflow:visible;"/>
		</clipPath>
		<g class="st24">
			<line class="st4" x1="309.8" y1="82" x2="568.7" y2="286.3"/>
			<line class="st4" x1="341.3" y1="124.9" x2="600.2" y2="329.2"/>
		</g>
	</g>
</g>
<g>
	<ellipse transform="matrix(0.9874 -0.1579 0.1579 0.9874 -63.0519 85.6481)" class="st25" cx="507.3" cy="439.5" rx="25" ry="25"/>
</g>
</svg>
