<?xml version="1.0" encoding="utf-8"?>
<!-- Generator: Adobe Illustrator 25.2.0, SVG Export Plug-In . SVG Version: 6.00 Build 0)  -->
<svg version="1.1" id="Layer_1" xmlns="http://www.w3.org/2000/svg" xmlns:xlink="http://www.w3.org/1999/xlink" x="0px" y="0px"
	 viewBox="0 0 320 320" style="enable-background:new 0 0 320 320;" xml:space="preserve">
<style type="text/css">
	.st0{opacity:0.4;}
	.st1{clip-path:url(#SVGID_1_);}
	.st2{clip-path:url(#SVGID_3_);}
	.st3{opacity:0.6;fill:none;stroke:#FFFFFF;stroke-width:2;}
</style>
<g>
	<g>
		<g>
			<g class="st0">
				<defs>
					<path id="SVGID_7_" class="st0" d="M310.1,235.6L34,282c-4.6,0.8-8.8-3-9.5-8.4L2.8,95.5c-0.7-5.4,2.5-10.4,7.1-11.2L286,38
						c4.6-0.8,8.8,3,9.5,8.4l21.7,178.1C317.9,229.9,314.7,234.9,310.1,235.6z"/>
				</defs>
				<clipPath id="SVGID_1_">
					<use xlink:href="#SVGID_7_"  style="overflow:visible;"/>
				</clipPath>
				<g class="st1">
					<g>
						<defs>
							<rect id="SVGID_2_" x="0.4" y="35.1" width="319.2" height="249.7"/>
						</defs>
						<clipPath id="SVGID_3_">
							<use xlink:href="#SVGID_2_"  style="overflow:visible;"/>
						</clipPath>
						<g class="st2">
							<defs>
								<rect id="SVGID_4_" x="0.4" y="35.1" width="319.2" height="249.7"/>
							</defs>
							<clipPath id="SVGID_5_">
								<use xlink:href="#SVGID_4_"  style="overflow:visible;"/>
							</clipPath>
							<g style="clip-path:url(#SVGID_5_);">
								
									<image style="overflow:visible;" width="666" height="521" xlink:href="EB21760A.jpg"  transform="matrix(0.48 0 0 0.48 0 35.04)">
								</image>
							</g>
						</g>
					</g>
				</g>
			</g>
			<path class="st3" d="M310.1,235.6L34,282c-4.6,0.8-8.8-3-9.5-8.4L2.8,95.5c-0.7-5.4,2.5-10.4,7.1-11.2L286,38
				c4.6-0.8,8.8,3,9.5,8.4l21.7,178.1C317.9,229.9,314.7,234.9,310.1,235.6z"/>
		</g>
	</g>
</g>
</svg>
